<svg width="1108" height="954" viewBox="0 0 1108 954" fill="none" xmlns="http://www.w3.org/2000/svg">
<path d="M960.943 553.113C964.041 665.12 839.412 759.433 682.576 763.769C525.741 768.106 396.089 680.822 392.992 568.816C389.894 456.81 514.523 362.496 671.359 358.16C828.194 353.824 957.846 441.107 960.943 553.113Z" fill="#C1A1F1"/>
<path d="M892.709 323.537C953.034 417.968 894.747 562.971 762.522 647.412C630.297 731.852 474.204 723.754 413.879 629.323C353.553 534.893 411.84 389.889 544.066 305.449C676.291 221.008 832.384 229.107 892.709 323.537Z" fill="#B3EDE4"/>
<path d="M753.005 189.43C844.606 253.984 845.587 410.257 755.196 538.475C664.805 666.694 517.272 718.305 425.671 653.751C334.071 589.198 333.09 432.925 423.481 304.706C513.871 176.487 661.404 124.877 753.005 189.43Z" fill="#F3DBAF"/>
<path d="M593.897 113.031C702.147 142.032 756.981 288.375 716.374 439.898C675.766 591.421 555.094 690.746 446.844 661.745C338.594 632.745 283.76 486.402 324.367 334.878C364.975 183.355 485.647 84.0308 593.897 113.031Z" fill="#99D3F2"/>
<path d="M741.093 482.987C867.724 572.726 645.701 826.655 470.995 844.149C275.419 863.733 146 539.625 146 457.978C146 376.33 177.475 124.767 320.209 124.767C462.944 124.767 614.462 393.248 741.093 482.987Z" fill="#4D4B4A"/>
<path d="M372.104 627.591C364.745 627.591 357.819 626.293 351.325 623.696C344.832 620.955 339.06 616.771 334.01 611.144C329.104 605.518 325.28 598.376 322.538 589.72C319.797 580.919 318.426 570.532 318.426 558.557C318.426 548.025 319.508 538.792 321.672 530.857C323.837 522.922 326.723 516.285 330.33 510.947C334.082 505.465 338.267 501.065 342.884 497.746C347.646 494.428 352.552 492.048 357.602 490.605C362.797 489.162 367.92 488.441 372.97 488.441C383.215 488.441 391.873 490.749 398.943 495.366C406.158 499.983 411.714 506.475 415.61 514.843L400.242 526.312L398.511 527.394L397.428 525.663C397.573 524.509 397.428 523.427 396.995 522.417C396.707 521.407 395.985 519.892 394.831 517.872C391.656 513.977 388.338 511.38 384.875 510.082C381.556 508.783 378.02 508.134 374.269 508.134C370.084 508.134 366.116 509.216 362.364 511.38C358.612 513.4 355.221 516.502 352.191 520.686C349.161 524.87 346.78 530.063 345.049 536.267C343.461 542.326 342.668 549.396 342.668 557.475C342.668 565.266 343.389 572.263 344.832 578.467C346.419 584.526 348.512 589.72 351.109 594.048C353.851 598.376 357.025 601.694 360.633 604.003C364.384 606.311 368.425 607.465 372.754 607.465C376.217 607.465 379.391 606.96 382.277 605.95C385.307 604.94 388.049 603.353 390.502 601.189C392.955 599.025 395.192 596.14 397.212 592.533L414.095 605.085C409.044 613.164 403.128 618.935 396.346 622.397C389.564 625.86 381.484 627.591 372.104 627.591Z" fill="white"/>
<path d="M472.751 628.457C465.825 628.457 459.26 627.231 453.055 624.778C446.85 622.325 441.655 618.574 437.471 613.525L449.592 594.264L450.674 592.533L452.405 593.615C452.694 594.769 453.055 595.924 453.488 597.078C453.921 598.232 455.003 599.675 456.734 601.406C458.755 602.849 460.919 604.003 463.228 604.868C465.536 605.59 467.99 605.95 470.587 605.95C474.339 605.95 477.441 604.94 479.894 602.921C482.491 600.757 484.439 597.583 485.738 593.399C487.037 589.071 487.686 583.732 487.686 577.385V510.082H462.795V490.389H531.841V510.082H511.928V579.116C512.072 587.628 511.062 594.986 508.898 601.189C506.733 607.249 503.775 612.298 500.023 616.338C496.272 620.378 492.015 623.407 487.253 625.427C482.491 627.447 477.657 628.457 472.751 628.457Z" fill="white"/>
<path d="M604.35 627.808C593.239 627.808 583.932 625.066 576.429 619.584C569.07 614.102 563.442 606.167 559.546 595.779C555.794 585.392 553.918 572.768 553.918 557.908C553.918 543.336 555.794 530.929 559.546 520.686C563.442 510.298 569.07 502.363 576.429 496.881C583.932 491.254 593.239 488.441 604.35 488.441C615.317 488.441 624.479 491.254 631.839 496.881C639.342 502.363 644.97 510.298 648.721 520.686C652.617 530.929 654.565 543.336 654.565 557.908C654.565 572.768 652.617 585.464 648.721 595.996C644.97 606.383 639.342 614.318 631.839 619.8C624.479 625.139 615.317 627.808 604.35 627.808ZM604.35 607.898C609.833 607.898 614.451 606.095 618.203 602.488C622.099 598.737 625.057 593.182 627.077 585.824C629.241 578.322 630.324 568.945 630.324 557.691C630.324 547.16 629.241 538.215 627.077 530.857C625.057 523.499 622.099 517.945 618.203 514.193C614.451 510.298 609.833 508.35 604.35 508.35C598.867 508.35 594.177 510.298 590.281 514.193C586.385 517.945 583.355 523.499 581.19 530.857C579.17 538.215 578.16 547.16 578.16 557.691C578.16 568.945 579.17 578.322 581.19 585.824C583.355 593.182 586.385 598.737 590.281 602.488C594.177 606.095 598.867 607.898 604.35 607.898Z" fill="white"/>
<path d="M677.941 625.211V490.389H712.789C720.726 490.389 727.363 491.11 732.702 492.553C738.185 493.995 742.803 496.087 746.555 498.828C750.451 501.57 753.914 504.96 756.944 509C759.974 513.039 762.5 517.656 764.52 522.85C766.684 527.899 768.344 533.382 769.498 539.297C770.652 545.212 771.229 551.704 771.229 558.773C770.941 569.017 769.57 578.25 767.117 586.474C764.808 594.553 761.201 601.478 756.295 607.249C751.533 613.02 745.328 617.492 737.68 620.666C730.033 623.696 720.87 625.211 710.192 625.211H677.941ZM701.75 606.167H709.543C718.778 606.167 726.137 604.219 731.62 600.324C737.247 596.284 741.288 590.73 743.741 583.66C746.194 576.591 747.348 568.368 747.204 558.99C747.204 549.035 746.122 540.379 743.957 533.021C741.937 525.663 738.33 519.964 733.135 515.925C727.94 511.885 720.87 509.865 711.923 509.865H701.75V606.167Z" fill="white"/>
<path d="M842.44 627.808C831.329 627.808 822.022 625.066 814.518 619.584C807.159 614.102 801.532 606.167 797.636 595.779C793.884 585.392 792.008 572.768 792.008 557.908C792.008 543.336 793.884 530.929 797.636 520.686C801.532 510.298 807.159 502.363 814.518 496.881C822.022 491.254 831.329 488.441 842.44 488.441C853.407 488.441 862.569 491.254 869.929 496.881C877.432 502.363 883.06 510.298 886.811 520.686C890.707 530.929 892.655 543.336 892.655 557.908C892.655 572.768 890.707 585.464 886.811 595.996C883.06 606.383 877.432 614.318 869.929 619.8C862.569 625.139 853.407 627.808 842.44 627.808ZM842.44 607.898C847.923 607.898 852.541 606.095 856.292 602.488C860.188 598.737 863.147 593.182 865.167 585.824C867.331 578.322 868.413 568.945 868.413 557.691C868.413 547.16 867.331 538.215 865.167 530.857C863.147 523.499 860.188 517.945 856.292 514.193C852.541 510.298 847.923 508.35 842.44 508.35C836.957 508.35 832.267 510.298 828.371 514.193C824.475 517.945 821.445 523.499 819.28 530.857C817.26 538.215 816.25 547.16 816.25 557.691C816.25 568.945 817.26 578.322 819.28 585.824C821.445 593.182 824.475 598.737 828.371 602.488C832.267 606.095 836.957 607.898 842.44 607.898Z" fill="white"/>
</svg>
